<svg xmlns="http://www.w3.org/2000/svg" viewBox="0 0 32 32"><path fill="#FFF" d="M1.8 3.9h29.5v23.8H1.8z"/><path fill="#2A5699" d="M32 4.7c.1-.8-.6-1.5-1.4-1.4-3.9-.1-7.8 0-11.7 0V.4h-2.2C11.2 1.4 5.6 2.3 0 3.3v25.4c5.5 1 11.1 1.9 16.6 2.9h2.3v-3.2h10.9c.6 0 1.3 0 1.8-.4.4-.7.3-1.5.4-2.2-.1-7.1 0-14 0-21.1zM12.1 20.9c-.6.3-1.5 0-2.2 0l-1.5-7.2c-.4 2.3-1 4.7-1.5 7-.7 0-1.4-.1-2.1-.1-.6-3.2-1.3-6.4-1.9-9.6h1.9c.4 2.3.8 4.6 1.1 6.9.5-2.4 1-4.8 1.5-7.1.7 0 1.4-.1 2.1-.1.5 2.5 1 4.9 1.5 7.3.4-2.5.9-5 1.3-7.6.7 0 1.5-.1 2.2-.1-.8 3.6-1.5 7.1-2.4 10.6zm18.8 6.4h-12v-2.6h9.5v-1.5h-9.5v-1.8h9.5v-1.5h-9.5v-1.8h9.5v-1.5h-9.5v-1.8h9.5v-1.5h-9.5v-1.8h9.5V10h-9.5V8.2h9.5V6.7h-9.5V4.2h12v23.1z"/></svg>