<svg xmlns="http://www.w3.org/2000/svg" viewBox="0 0 32 32"><path fill="#FFF" d="M1.8 3.9h29.5v23.8H1.8z"/><g fill="#D24625"><path d="M32 4.7c.1-.8-.6-1.5-1.4-1.4-3.9-.1-7.8 0-11.7 0V.4h-2.1C11.2 1.3 5.6 2.3 0 3.3v25.4c5.5 1 11.1 1.9 16.6 2.9h2.3v-3.3h10.9c.6 0 1.3 0 1.8-.4.4-.7.3-1.5.3-2.2 0-6.7.1-14.2.1-21zM10.7 17.2c-.8.4-1.8.4-2.7.3v4.3c-.7-.1-1.4-.1-2.2-.2V9.9c2 .1 4.4-.8 6 .7 1.6 2 1.2 5.5-1.1 6.6zm20.2 10.1h-12V24h8.7v-1.5h-8.7v-1.8h8.7v-1.5h-8.7v-2.1c1.4.4 3.1.4 4.4-.4 1.4-.8 2.1-2.4 2.2-4h-4.8V8c-.6.1-1.2.2-1.8.4v-4h12v22.9z"/><path d="M26.2 12c-.1-2.5-2.3-4.6-4.8-4.8V12h4.8zM8 11.9c0 1.2 0 2.4.1 3.7.7-.1 1.7 0 2.1-.8.3-.7.4-1.7 0-2.4-.6-.6-1.5-.5-2.2-.5z"/></g></svg>