<svg xmlns="http://www.w3.org/2000/svg" viewBox="0 0 16 16"><path d="M14 2.5c-.8 0-1.5.7-1.5 1.5 0 .3.1.5.2.8l-2.2 2.8c-.2-.1-.3-.1-.5-.1-.3 0-.6.1-.8.3L7.4 6.4c0-.1.1-.3.1-.4 0-.8-.7-1.5-1.5-1.5S4.5 5.2 4.5 6c0 .3.1.6.2.8L2.5 9.6c-.2-.1-.3-.1-.5-.1-.8 0-1.5.7-1.5 1.5s.7 1.5 1.5 1.5 1.5-.7 1.5-1.5c0-.3-.1-.6-.2-.8l2.2-2.8c.2.1.3.1.5.1.3 0 .6-.1.8-.3l1.7 1.3c0 .1-.1.3-.1.4 0 .8.7 1.5 1.5 1.5s1.5-.7 1.5-1.5c0-.3-.1-.5-.2-.8l2.2-2.8c.2.1.3.1.5.1.8 0 1.5-.7 1.5-1.5.1-.7-.6-1.4-1.4-1.4z" fill-rule="evenodd" clip-rule="evenodd"/></svg>