<svg xmlns="http://www.w3.org/2000/svg" xmlns:xlink="http://www.w3.org/1999/xlink" viewBox="0 0 32 32"><path fill="#1E110E" d="M.8 1.2h30.3v29.5H.8z"/><path fill="#FFF" d="M1.3 30.3h29.3V1.7H1.3v28.6zM32 31.6H0V.4h32v31.2z"/><defs><path id="a" d="M5.7 26c-.3-.2-.3-.5-.3-.8.2-1.1 2.3-2.6 5.6-3.9-1.8 3.1-3.6 5-4.7 5-.2-.1-.4-.1-.6-.3M24 20.9c-1.6-.4-2.9-1.2-4-2.2 2.2-.4 4.1-.3 4.9-.2.8.2 1.3.7 1.1 1.4-.1.6-.7 1-1.5 1H24m-9.3-3.7c.4-1 .8-2 1.2-3.1.4.6.8 1.3 1.2 1.9.7.9 1.3 1.7 2.1 2.4-1 .2-2 .4-3 .7-.9.2-1.8.5-2.7.8l1.2-2.7m-.4-11.4c.2-.3.5-.5.8-.5.6 0 1 .6 1 1.6 0 1.1-.4 2.9-1 5-1.3-2.9-1.3-5.2-.8-6.1m-.4-.2c-.7 1.2-.4 4 .9 6.9-.5 1.4-1 2.7-1.6 4.3-.5 1.3-1.2 2.6-1.9 3.8-3.7 1.5-6.1 3.1-6.3 4.5 0 .5.1.9.5 1.2.2.2.7.5 1.3.5 2.1 0 4.5-3.1 6.3-6.3 1-.3 2-.7 3.1-.9 1.2-.3 2.3-.6 3.3-.7 2.6 2.3 4.9 2.7 6 2.7 1.4 0 1.8-.6 2-1 .2-.5 0-1.1-.3-1.4-.6-.7-2-1.1-3.9-1.1-1.1 0-2.3.1-3.6.3-.8-.7-1.5-1.6-2.2-2.6-.5-.7-1-1.4-1.4-2.2.7-2.1 1.2-4.1 1.2-5.6 0-1.1-.4-3-2.1-3-.6-.1-1 .2-1.3.6"/></defs><use xlink:href="#a" overflow="visible" fill="#FFF"/><clipPath id="b"><use xlink:href="#a" overflow="visible"/></clipPath><path clip-path="url(#b)" fill="#FFF" d="M5 4.9h22.7v21.9H5z"/><path fill-rule="evenodd" clip-rule="evenodd" fill="#DB2B2B" d="M0 31.6h32V.4H0v31.2zM1.3 1.7h29.3v28.5H1.3V1.7z"/></svg>