<svg xmlns="http://www.w3.org/2000/svg" viewBox="0 0 32 32"><path fill="#FFF" d="M1.8 3.9h29.5v23.8H1.8z"/><g fill="#207245"><path d="M32 24.4V5.5c0-.6 0-1.3-.4-1.8-.5-.4-1.2-.3-1.8-.3H18.9V.5h-2.2C11.2 1.4 5.6 2.3 0 3.3v25.4c5.5 1 11.1 1.9 16.6 2.9h2.3v-3.3h11.3c.6 0 1.5 0 1.7-.8.2-1 .1-2.1.1-3.1zm-21.3-2.7c-.6-1.5-1.4-3-1.8-4.6-.5 1.5-1.2 2.9-1.8 4.3-.8 0-1.6 0-2.4-.1.9-1.8 1.8-3.7 2.8-5.5-.8-1.8-1.7-3.6-2.5-5.5.8 0 1.6-.1 2.4-.1.5 1.4 1.1 2.8 1.6 4.2.5-1.5 1.2-3 1.8-4.5.8-.1 1.6-.1 2.5-.1-1 2-1.9 4-2.9 6 1 2 2 4.1 3 6.1-.9-.1-1.8-.1-2.7-.2zm20.2 5.6h-12v-2.2h2.9v-2.5h-2.9v-1.5h2.9v-2.5h-2.9v-1.5h2.9v-2.5h-2.9v-1.5h2.9v-2.5h-2.9V9.1h2.9V6.6h-2.9V4.4h12v22.9z"/><path d="M28.3 6.5h-5.1V9h5.1V6.5zm0 4h-5.1V13h5.1v-2.5zm0 4h-5.1V17h5.1v-2.5zm0 4h-5.1V21h5.1v-2.5zm0 4h-5.1V25h5.1v-2.5z"/></g></svg>