<?xml version="1.0" encoding="utf-8"?>
<!-- Generator: Adobe Illustrator 21.1.0, SVG Export Plug-In . SVG Version: 6.00 Build 0)  -->
<svg version="1.1" id="Layer_1" xmlns="http://www.w3.org/2000/svg" xmlns:xlink="http://www.w3.org/1999/xlink" x="0px" y="0px"
	 viewBox="0 0 32 32" enable-background="new 0 0 32 32" xml:space="preserve">
<rect x="1.8" y="3.9" fill="#FFFFFF" width="29.5" height="23.8"/>
<g>
	<path fill="#D24625" d="M32,4.7c0.1-0.8-0.6-1.5-1.4-1.4c-3.9-0.1-7.8,0-11.7,0c0-1.1,0-1.8,0-2.9h-2.1C11.2,1.3,5.6,2.3,0,3.3
		c0,8.5,0,17,0,25.4c5.5,1,11.1,1.9,16.6,2.9h2.3c0-1.2,0-2,0-3.3c3.6,0,7.3,0,10.9,0c0.6,0,1.3,0,1.8-0.4c0.4-0.7,0.3-1.5,0.3-2.2
		C31.9,19,32,11.5,32,4.7z M10.7,17.2c-0.8,0.4-1.8,0.4-2.7,0.3c0,1.4,0,2.8,0,4.3c-0.7-0.1-1.4-0.1-2.2-0.2c0-3.9,0-7.8,0-11.7
		c2,0.1,4.4-0.8,6,0.7C13.4,12.6,13,16.1,10.7,17.2z M30.9,27.3c-4,0-8,0-12,0c0-1,0-2.3,0-3.3c2.9,0,5.8,0,8.7,0c0-0.5,0-1,0-1.5
		c-2.9,0-5.8,0-8.7,0c0-0.6,0-1.2,0-1.8c2.9,0,5.8,0,8.7,0c0-0.5,0-1,0-1.5c-2.9,0-5.8,0-8.7,0c0-0.7,0-1.4,0-2.1
		c1.4,0.4,3.1,0.4,4.4-0.4c1.4-0.8,2.1-2.4,2.2-4c-1.6,0-3.2,0-4.8,0c0-1.6,0-3.2,0-4.7c-0.6,0.1-1.2,0.2-1.8,0.4c0-1.2,0-2.8,0-4
		c4,0,8,0,12,0C30.9,11.8,30.9,19.9,30.9,27.3z"/>
	<path fill="#D24625" d="M26.2,12c-0.1-2.5-2.3-4.6-4.8-4.8c0,1.6,0,3.2,0,4.8C23,12,24.6,12,26.2,12z"/>
	<path fill="#D24625" d="M8,11.9c0,1.2,0,2.4,0.1,3.7c0.7-0.1,1.7,0,2.1-0.8c0.3-0.7,0.4-1.7,0-2.4C9.6,11.8,8.7,11.9,8,11.9z"/>
</g>
</svg>
