<?xml version="1.0" encoding="utf-8"?>
<!-- Generator: Adobe Illustrator 21.1.0, SVG Export Plug-In . SVG Version: 6.00 Build 0)  -->
<svg version="1.1" id="Layer_1" xmlns="http://www.w3.org/2000/svg" xmlns:xlink="http://www.w3.org/1999/xlink" x="0px" y="0px"
	 viewBox="0 0 32 32" enable-background="new 0 0 32 32" xml:space="preserve">
<rect x="1.8" y="3.9" fill="#FFFFFF" width="29.5" height="23.8"/>
<path fill="#2A5699" d="M32,4.7c0.1-0.8-0.6-1.5-1.4-1.4c-3.9-0.1-7.8,0-11.7,0c0-1,0-1.9,0-2.9h-2.2C11.2,1.4,5.6,2.3,0,3.3
	c0,8.5,0,17,0,25.4c5.5,1,11.1,1.9,16.6,2.9h2.3c0-1,0-2.3,0-3.2c3.6,0,7.3,0,10.9,0c0.6,0,1.3,0,1.8-0.4c0.4-0.7,0.3-1.5,0.4-2.2
	C31.9,18.7,32,11.8,32,4.7z M12.1,20.9c-0.6,0.3-1.5,0-2.2,0c-0.5-2.4-1-4.8-1.5-7.2c-0.4,2.3-1,4.7-1.5,7c-0.7,0-1.4-0.1-2.1-0.1
	c-0.6-3.2-1.3-6.4-1.9-9.6C3.6,11,4.2,11,4.8,11c0.4,2.3,0.8,4.6,1.1,6.9c0.5-2.4,1-4.8,1.5-7.1c0.7,0,1.4-0.1,2.1-0.1
	c0.5,2.5,1,4.9,1.5,7.3c0.4-2.5,0.9-5,1.3-7.6c0.7,0,1.5-0.1,2.2-0.1C13.7,13.9,13,17.4,12.1,20.9z M30.9,27.3c-4,0-8,0-12,0
	c0-1,0-1.6,0-2.6c3.2,0,6.3,0,9.5,0c0-0.5,0-1,0-1.5c-3.2,0-6.3,0-9.5,0c0-0.6,0-1.2,0-1.8c3.2,0,6.3,0,9.5,0c0-0.5,0-1,0-1.5
	c-3.2,0-6.3,0-9.5,0c0-0.6,0-1.2,0-1.8c3.2,0,6.3,0,9.5,0c0-0.5,0-1,0-1.5c-3.2,0-6.3,0-9.5,0c0-0.6,0-1.2,0-1.8c3.2,0,6.3,0,9.5,0
	c0-0.5,0-1,0-1.5c-3.2,0-6.3,0-9.5,0c0-0.6,0-1.2,0-1.8c3.2,0,6.3,0,9.5,0c0-0.5,0-1,0-1.5c-3.2,0-6.3,0-9.5,0c0-0.6,0-1.2,0-1.8
	c3.2,0,6.3,0,9.5,0c0-0.5,0-1,0-1.5c-3.2,0-6.3,0-9.5,0c0-0.8,0-1.7,0-2.5c4,0,8,0,12,0C30.9,12.1,30.9,19.5,30.9,27.3z"/>
</svg>
