<?xml version="1.0" encoding="utf-8"?>
<!-- Generator: Adobe Illustrator 21.1.0, SVG Export Plug-In . SVG Version: 6.00 Build 0)  -->
<svg version="1.1" id="Layer_1" xmlns="http://www.w3.org/2000/svg" xmlns:xlink="http://www.w3.org/1999/xlink" x="0px" y="0px"
	 viewBox="0 0 16 16" style="enable-background:new 0 0 16 16;" xml:space="preserve">
<style type="text/css">
	.color1{fill-rule:evenodd;clip-rule:evenodd;}
</style>
<g>
	<g>
		<path class="color1" d="M14,2.5c-0.8,0-1.5,0.7-1.5,1.5c0,0.3,0.1,0.5,0.2,0.8l-2.2,2.8c-0.2-0.1-0.3-0.1-0.5-0.1
			c-0.3,0-0.6,0.1-0.8,0.3L7.4,6.4c0-0.1,0.1-0.3,0.1-0.4c0-0.8-0.7-1.5-1.5-1.5S4.5,5.2,4.5,6c0,0.3,0.1,0.6,0.2,0.8L2.5,9.6
			C2.3,9.5,2.2,9.5,2,9.5c-0.8,0-1.5,0.7-1.5,1.5c0,0.8,0.7,1.5,1.5,1.5s1.5-0.7,1.5-1.5c0-0.3-0.1-0.6-0.2-0.8l2.2-2.8
			C5.7,7.5,5.8,7.5,6,7.5c0.3,0,0.6-0.1,0.8-0.3l1.7,1.3c0,0.1-0.1,0.3-0.1,0.4c0,0.8,0.7,1.5,1.5,1.5s1.5-0.7,1.5-1.5
			c0-0.3-0.1-0.5-0.2-0.8l2.2-2.8c0.2,0.1,0.3,0.1,0.5,0.1c0.8,0,1.5-0.7,1.5-1.5C15.5,3.2,14.8,2.5,14,2.5z"/>
	</g>
</g>
</svg>
