<?xml version="1.0" encoding="utf-8"?>
<!-- Generator: Adobe Illustrator 21.1.0, SVG Export Plug-In . SVG Version: 6.00 Build 0)  -->
<svg version="1.1" id="Layer_1" xmlns="http://www.w3.org/2000/svg" xmlns:xlink="http://www.w3.org/1999/xlink" x="0px" y="0px"
	 viewBox="0 0 16 16" style="enable-background:new 0 0 16 16;" xml:space="preserve">
<style type="text/css">
	.color1{fill-rule:evenodd;clip-rule:evenodd;}
</style>
<g>
	<g>
		<path class="color1" d="M10.8,6.6c-2.3,0-4.2,1.9-4.2,4.2c0,2.3,1.9,4.2,4.2,4.2c2.3,0,4.2-1.9,4.2-4.2C15,8.5,13.1,6.6,10.8,6.6z
			 M3.3,9.4C2,9.4,1,10.4,1,11.7c0,1.3,1,2.3,2.3,2.3c1.3,0,2.3-1,2.3-2.3C5.7,10.4,4.6,9.4,3.3,9.4z M4.3,1C2.5,1,1,2.5,1,4.3
			c0,1.8,1.5,3.3,3.3,3.3c1.8,0,3.3-1.5,3.3-3.3C7.5,2.5,6.1,1,4.3,1z M11.3,5.7c1,0,1.9-0.8,1.9-1.9c0-1-0.8-1.9-1.9-1.9
			c-1,0-1.9,0.8-1.9,1.9C9.4,4.8,10.2,5.7,11.3,5.7z"/>
	</g>
</g>
</svg>
