<?xml version="1.0" encoding="utf-8"?>
<!-- Generator: Adobe Illustrator 21.1.0, SVG Export Plug-In . SVG Version: 6.00 Build 0)  -->
<svg version="1.1" id="Layer_1" xmlns="http://www.w3.org/2000/svg" xmlns:xlink="http://www.w3.org/1999/xlink" x="0px" y="0px"
	 viewBox="0 0 32 32" enable-background="new 0 0 32 32" xml:space="preserve">
<rect x="1.8" y="3.9" fill="#FFFFFF" width="29.5" height="23.8"/>
<g>
	<path fill="#207245" d="M32,24.4c0-6.3,0-12.6,0-18.9c0-0.6,0-1.3-0.4-1.8c-0.5-0.4-1.2-0.3-1.8-0.3c-3.6,0-7.3,0-10.9,0
		c0-1,0-1.9,0-2.9h-2.2C11.2,1.4,5.6,2.3,0,3.3c0,8.5,0,17,0,25.4c5.5,1,11.1,1.9,16.6,2.9h2.3c0-1.1,0-2.2,0-3.3
		c3.8,0,7.5,0,11.3,0c0.6,0,1.5,0,1.7-0.8C32.1,26.5,32,25.4,32,24.4z M10.7,21.7c-0.6-1.5-1.4-3-1.8-4.6c-0.5,1.5-1.2,2.9-1.8,4.3
		c-0.8,0-1.6,0-2.4-0.1c0.9-1.8,1.8-3.7,2.8-5.5C6.7,14,5.8,12.2,5,10.3c0.8,0,1.6-0.1,2.4-0.1C7.9,11.6,8.5,13,9,14.4
		c0.5-1.5,1.2-3,1.8-4.5c0.8-0.1,1.6-0.1,2.5-0.1c-1,2-1.9,4-2.9,6c1,2,2,4.1,3,6.1C12.5,21.8,11.6,21.8,10.7,21.7z M30.9,27.3
		c-4,0-8,0-12,0c0-0.7,0-1.5,0-2.2c1,0,1.9,0,2.9,0c0-0.8,0-1.7,0-2.5c-1,0-1.9,0-2.9,0c0-0.5,0-1,0-1.5c1,0,1.9,0,2.9,0
		c0-0.8,0-1.7,0-2.5c-1,0-1.9,0-2.9,0c0-0.5,0-1,0-1.5c1,0,1.9,0,2.9,0c0-0.8,0-1.7,0-2.5c-1,0-1.9,0-2.9,0c0-0.5,0-1,0-1.5
		c1,0,1.9,0,2.9,0c0-0.8,0-1.7,0-2.5c-1,0-1.9,0-2.9,0c0-0.5,0-1,0-1.5c1,0,1.9,0,2.9,0c0-0.8,0-1.7,0-2.5c-1,0-1.9,0-2.9,0
		c0-0.7,0-1.5,0-2.2c4,0,8,0,12,0C30.9,12,30.9,19.6,30.9,27.3z"/>
	<path fill="#207245" d="M28.3,6.5c-1.7,0-3.4,0-5.1,0c0,0.8,0,1.7,0,2.5c1.7,0,3.4,0,5.1,0C28.3,8.2,28.3,7.4,28.3,6.5z"/>
	<path fill="#207245" d="M28.3,10.5c-1.7,0-3.4,0-5.1,0c0,0.8,0,1.7,0,2.5c1.7,0,3.4,0,5.1,0C28.3,12.2,28.3,11.4,28.3,10.5z"/>
	<path fill="#207245" d="M28.3,14.5c-1.7,0-3.4,0-5.1,0c0,0.8,0,1.7,0,2.5c1.7,0,3.4,0,5.1,0C28.3,16.2,28.3,15.4,28.3,14.5z"/>
	<path fill="#207245" d="M28.3,18.5c-1.7,0-3.4,0-5.1,0c0,0.8,0,1.7,0,2.5c1.7,0,3.4,0,5.1,0C28.3,20.2,28.3,19.4,28.3,18.5z"/>
	<path fill="#207245" d="M28.3,22.5c-1.7,0-3.4,0-5.1,0c0,0.8,0,1.7,0,2.5c1.7,0,3.4,0,5.1,0C28.3,24.2,28.3,23.4,28.3,22.5z"/>
</g>
</svg>
