<?xml version="1.0" encoding="utf-8"?>
<!-- Generator: Adobe Illustrator 21.1.0, SVG Export Plug-In . SVG Version: 6.00 Build 0)  -->
<svg version="1.1" id="Layer_1" xmlns="http://www.w3.org/2000/svg" xmlns:xlink="http://www.w3.org/1999/xlink" x="0px" y="0px"
	 viewBox="0 0 32 32" enable-background="new 0 0 32 32" xml:space="preserve">
<rect x="0.8" y="1.2" fill="#1E110E" width="30.3" height="29.5"/>
<path fill="#FFFFFF" d="M1.3,30.3h29.3V1.7H1.3V30.3z M32,31.6H0V0.4h32V31.6z"/>
<g>
	<defs>
		<path id="svg-adobe-acrobat_1_" d="M5.7,26c-0.3-0.2-0.3-0.5-0.3-0.8c0.2-1.1,2.3-2.6,5.6-3.9c-1.8,3.1-3.6,5-4.7,5C6.1,26.2,5.9,26.2,5.7,26
			 M24,20.9c-1.6-0.4-2.9-1.2-4-2.2c2.2-0.4,4.1-0.3,4.9-0.2c0.8,0.2,1.3,0.7,1.1,1.4c-0.1,0.6-0.7,1-1.5,1
			C24.4,20.9,24.2,20.9,24,20.9 M14.7,17.2c0.4-1,0.8-2,1.2-3.1c0.4,0.6,0.8,1.3,1.2,1.9c0.7,0.9,1.3,1.7,2.1,2.4l0,0l0,0
			c-1,0.2-2,0.4-3,0.7c-0.9,0.2-1.8,0.5-2.7,0.8C13.9,19,14.3,18.1,14.7,17.2 M14.3,5.8c0.2-0.3,0.5-0.5,0.8-0.5c0.6,0,1,0.6,1,1.6
			c0,1.1-0.4,2.9-1,5C13.8,9,13.8,6.7,14.3,5.8 M13.9,5.6c-0.7,1.2-0.4,4,0.9,6.9c-0.5,1.4-1,2.7-1.6,4.3c-0.5,1.3-1.2,2.6-1.9,3.8
			c-3.7,1.5-6.1,3.1-6.3,4.5C5,25.6,5.1,26,5.5,26.3c0.2,0.2,0.7,0.5,1.3,0.5c2.1,0,4.5-3.1,6.3-6.3c1-0.3,2-0.7,3.1-0.9
			c1.2-0.3,2.3-0.6,3.3-0.7c2.6,2.3,4.9,2.7,6,2.7c1.4,0,1.8-0.6,2-1c0.2-0.5,0-1.1-0.3-1.4c-0.6-0.7-2-1.1-3.9-1.1
			c-1.1,0-2.3,0.1-3.6,0.3c-0.8-0.7-1.5-1.6-2.2-2.6c-0.5-0.7-1-1.4-1.4-2.2c0.7-2.1,1.2-4.1,1.2-5.6c0-1.1-0.4-3-2.1-3
			C14.6,4.9,14.2,5.2,13.9,5.6"/>
	</defs>
	<use xlink:href="#svg-adobe-acrobat_1_"  overflow="visible" fill="#FFFFFF"/>
	<clipPath id="svg-adobe-acrobat_2_">
		<use xlink:href="#svg-adobe-acrobat_1_"  overflow="visible"/>
	</clipPath>
	<rect x="5" y="4.9" clip-path="url(#svg-adobe-acrobat_2_)" fill="#FFFFFF" width="22.7" height="21.9"/>
</g>
<path fill-rule="evenodd" clip-rule="evenodd" fill="#DB2B2B" d="M0,31.6h32V0.4H0V31.6z M1.3,1.7h29.3v28.5H1.3V1.7z"/>
</svg>
