<?xml version="1.0" encoding="utf-8"?>
<!-- Generator: Adobe Illustrator 18.1.1, SVG Export Plug-In . SVG Version: 6.00 Build 0)  -->
<!DOCTYPE svg PUBLIC "-//W3C//DTD SVG 1.1//EN" "http://www.w3.org/Graphics/SVG/1.1/DTD/svg11.dtd">
<svg version="1.1" id="Layer_5" xmlns="http://www.w3.org/2000/svg" xmlns:xlink="http://www.w3.org/1999/xlink" x="0px" y="0px"
	 viewBox="0 0 72 72" enable-background="new 0 0 72 72" xml:space="preserve">
<path class="color1" d="M23.3,42.4c0-0.6,0.5-1.1,1.1-1.1h23.3c0.6,0,1.1,0.5,1.1,1.1s-0.5,1.1-1.1,1.1H24.3C23.8,43.4,23.3,42.9,23.3,42.4z
	 M24.3,49.8h23.3c0.6,0,1.1-0.5,1.1-1.1c0-0.6-0.5-1.1-1.1-1.1H24.3c-0.6,0-1.1,0.5-1.1,1.1C23.3,49.3,23.8,49.8,24.3,49.8z M19,9.5
	H53v6.4h4.2V5.2H14.8v10.6H19V9.5z M67.8,20.1v27.6H57.2v19.1H14.8V47.7H4.2V20.1H67.8z M53,34.9H19v27.6H53V34.9z M24.3,56.1h23.3
	c0.6,0,1.1-0.5,1.1-1.1c0-0.6-0.5-1.1-1.1-1.1H24.3c-0.6,0-1.1,0.5-1.1,1.1C23.3,55.7,23.8,56.1,24.3,56.1z"/>
</svg>
